<?xml version="1.0" encoding="UTF-8" standalone="no"?>
<!DOCTYPE svg PUBLIC "-//W3C//DTD SVG 1.0//EN" "http://www.w3.org/TR/2001/PR-SVG-20010719/DTD/svg10.dtd">
<svg width="13cm" height="17cm" viewBox="290 89 249 334" xmlns="http://www.w3.org/2000/svg" xmlns:xlink="http://www.w3.org/1999/xlink">
  <rect style="fill: none; fill-opacity:0; stroke-width: 2; stroke: #000000" x="330" y="140" width="150" height="240"/>
  <g>
    <line style="fill: none; fill-opacity:0; stroke-width: 2; stroke: #000000" x1="360" y1="90" x2="360" y2="130.264"/>
    <polygon style="fill: #000000" points="360,137.764 355,127.764 360,130.264 365,127.764 "/>
    <polygon style="fill: none; fill-opacity:0; stroke-width: 2; stroke: #000000" points="360,137.764 355,127.764 360,130.264 365,127.764 "/>
  </g>
  <g>
    <line style="fill: none; fill-opacity:0; stroke-width: 2; stroke: #000000" x1="450" y1="99.7361" x2="450" y2="140"/>
    <polygon style="fill: #000000" points="450,92.2361 455,102.236 450,99.7361 445,102.236 "/>
    <polygon style="fill: none; fill-opacity:0; stroke-width: 2; stroke: #000000" points="450,92.2361 455,102.236 450,99.7361 445,102.236 "/>
  </g>
  <g>
    <line style="fill: none; fill-opacity:0; stroke-width: 2; stroke: #000000" x1="360" y1="380" x2="360" y2="410.264"/>
    <polygon style="fill: #000000" points="360,417.764 355,407.764 360,410.264 365,407.764 "/>
    <polygon style="fill: none; fill-opacity:0; stroke-width: 2; stroke: #000000" points="360,417.764 355,407.764 360,410.264 365,407.764 "/>
  </g>
  <g>
    <line style="fill: none; fill-opacity:0; stroke-width: 2; stroke: #000000" x1="448" y1="389.736" x2="448" y2="420"/>
    <polygon style="fill: #000000" points="448,382.236 453,392.236 448,389.736 443,392.236 "/>
    <polygon style="fill: none; fill-opacity:0; stroke-width: 2; stroke: #000000" points="448,382.236 453,392.236 448,389.736 443,392.236 "/>
  </g>
  <text font-size="16.9333" style="fill: #000000;text-anchor:start;font-family:Arial;font-style:normal;font-weight:normal" x="310" y="120">
    <tspan x="310" y="120">L, x</tspan>
  </text>
  <text font-size="16.9333" style="fill: #000000;text-anchor:start;font-family:Arial;font-style:normal;font-weight:normal" x="470" y="120">
    <tspan x="470" y="120">D, y</tspan>
  </text>
  <text font-size="16.9333" style="fill: #000000;text-anchor:start;font-family:Arial;font-style:normal;font-weight:normal" x="290" y="410">
    <tspan x="290" y="410">L, x+dx</tspan>
  </text>
  <text font-size="12.7998" style="fill: #000000;text-anchor:start;font-family:sans-serif;font-style:normal;font-weight:normal" x="310" y="410">
    <tspan x="310" y="410"></tspan>
  </text>
  <text font-size="12.7998" style="fill: #000000;text-anchor:start;font-family:sans-serif;font-style:normal;font-weight:normal" x="490" y="120">
    <tspan x="490" y="120"></tspan>
  </text>
  <text font-size="16.9333" style="fill: #000000;text-anchor:start;font-family:Arial;font-style:normal;font-weight:normal" x="480" y="410">
    <tspan x="480" y="410">D, y+dy</tspan>
  </text>
  <line style="fill: none; fill-opacity:0; stroke-width: 2; stroke: #000000" x1="330" y1="294" x2="480" y2="294"/>
  <line style="fill: none; fill-opacity:0; stroke-width: 2; stroke: #000000" x1="330" y1="240" x2="480" y2="240"/>
  <line style="fill: none; fill-opacity:0; stroke-width: 2; stroke: #000000" x1="480" y1="240" x2="430" y2="294"/>
  <line style="fill: none; fill-opacity:0; stroke-width: 2; stroke: #000000" x1="450" y1="240" x2="400" y2="294"/>
  <line style="fill: none; fill-opacity:0; stroke-width: 2; stroke: #000000" x1="420" y1="240" x2="370" y2="294"/>
  <line style="fill: none; fill-opacity:0; stroke-width: 2; stroke: #000000" x1="390" y1="240" x2="340" y2="294"/>
  <line style="fill: none; fill-opacity:0; stroke-width: 2; stroke: #000000" x1="360" y1="240" x2="330" y2="270"/>
  <line style="fill: none; fill-opacity:0; stroke-width: 2; stroke: #000000" x1="480" y1="272" x2="460" y2="294"/>
  <text font-size="16.9333" style="fill: #000000;text-anchor:start;font-family:Arial;font-style:normal;font-weight:normal" x="290" y="270">
    <tspan x="290" y="270">dz</tspan>
  </text>
</svg>
